<?xml version="1.0" encoding="UTF-8"?>
<svg width="48px" height="48px" viewBox="0 0 48 48" version="1.1" xmlns="http://www.w3.org/2000/svg" xmlns:xlink="http://www.w3.org/1999/xlink">
    <!-- Generator: Sketch 54 (76480) - https://sketchapp.com -->
    <title>Slice@40x</title>
    <desc>Created with Sketch.</desc>
    <g id="Page-1" stroke="none" stroke-width="1" fill="none" fill-rule="evenodd">
        <g id="icons8-git" transform="translate(3.000000, 6.000000)" fill="#F4511E" fill-rule="nonzero">
            <path d="M12.8896172,1.78854204 L17.5996725,7.398438 C17.9993021,7.199219 18.3950531,7.101562 18.8916811,7.101562 C20.5794406,7.101562 21.8714492,8.398438 21.8714492,10.101562 C21.8714492,10.601562 21.7705722,11 21.5726967,11.398438 L25.5457209,15.398438 C25.9453505,15.199219 26.3411014,15.101562 26.8377295,15.101562 C28.525489,15.101562 29.8174976,16.398438 29.8174976,18.101562 C29.8174976,19.800781 28.525489,21.101562 26.8377295,21.101562 C25.1499699,21.101562 23.8579613,19.800781 23.8579613,18.101562 C23.8579613,17.601562 23.9588384,17.199219 24.1567139,16.800781 L20.1836897,12.800781 C20.0828126,12.800781 19.9858142,12.898438 19.8849371,12.898438 L19.8849371,23.300781 C21.0760687,23.699219 21.8714492,24.800781 21.8714492,26.101562 C21.8714492,27.800781 20.5794406,29.101562 18.8916811,29.101562 C17.2039215,29.101562 15.9119129,27.800781 15.9119129,26.101562 C15.9119129,24.800781 16.7072935,23.699219 17.898425,23.300781 L17.898425,12.800781 C16.7072935,12.398438 15.9119129,11.300781 15.9119129,10 C15.9119129,9.5 16.01279,9.101562 16.2106655,8.699219 L10.954432,3.300781 C6.59645793,8.699219 3.52088692,14.6328127 1.72771902,21.101562 C-1.79877012,33.8231672 5.57782119,37 24.1567139,37 C43.2987525,37 45.2167509,21.101562 36.8956428,11.398438 C28.7142235,1.8582032 20.712215,-1.34509546 12.8896172,1.78854204 Z" id="Path"></path>
        </g>
    </g>
</svg>